<svg xmlns="http://www.w3.org/2000/svg" xmlns:xlink="http://www.w3.org/1999/xlink" width="1080" zoomAndPan="magnify" viewBox="0 0 810 809.999993" height="1080" preserveAspectRatio="xMidYMid meet" version="1.0"><defs><clipPath id="e559a9d720"><path d="M 229 136.964844 L 581 136.964844 L 581 472 L 229 472 Z M 229 136.964844 " clip-rule="nonzero"/></clipPath><clipPath id="b1d96536e9"><path d="M 154 539 L 488 539 L 488 673.214844 L 154 673.214844 Z M 154 539 " clip-rule="nonzero"/></clipPath><clipPath id="e4d15595fe"><path d="M 154 539 L 488 539 L 488 673.214844 L 154 673.214844 Z M 154 539 " clip-rule="nonzero"/></clipPath></defs><g clip-path="url(#e559a9d720)"><path fill="#ced4da" d="M 357.511719 273.074219 C 359.484375 273.652344 361.621094 273.980469 363.433594 272.332031 L 460.367188 136.964844 L 568.859375 299.101562 C 591 344.027344 578.46875 389.679688 563.773438 414.257812 C 538.316406 456.269531 486.105469 485.371094 421.054688 465.640625 L 229.132812 466.792969 L 236.207031 455.597656 L 414.683594 461.644531 C 414.90625 455.414062 415.230469 450.839844 417.210938 442.953125 L 240.394531 449.800781 L 253.410156 432.09375 L 418.652344 438.589844 C 419.867188 432.316406 422.402344 425.652344 424.867188 419.398438 L 257.421875 426.535156 L 270.429688 408.730469 L 427.859375 414.742188 C 430.464844 408.652344 434.632812 402.429688 438.488281 396.851562 L 274.644531 402.851562 L 287.648438 384.890625 L 442.871094 391.335938 C 448.105469 384.777344 453.484375 379.039062 459.714844 373.375 L 291.742188 379.472656 L 296.695312 372.6875 C 293.6875 368.851562 290.816406 364.898438 288.089844 360.859375 L 468.003906 367.953125 C 482.101562 357.550781 509.996094 358.960938 521.566406 369.871094 L 526.988281 373.164062 C 531.828125 379.261719 534.582031 383.363281 538.648438 389.839844 C 539.230469 390.710938 540.304688 392.074219 541.800781 389.8125 C 544.613281 386.230469 548.9375 379.226562 550.527344 372.222656 L 526.988281 373.179688 L 521.585938 369.898438 L 551.277344 369.730469 C 552.429688 363.402344 552.597656 356.371094 552.359375 350.34375 L 285.355469 355.511719 C 281.023438 343.640625 279.265625 331.179688 281.5625 318.121094 C 289.085938 327.800781 314.816406 340.171875 319.566406 339.695312 L 551.46875 345.546875 C 550.878906 339.351562 549.902344 332.957031 547.035156 326.964844 L 311.734375 330.984375 C 307.027344 325.652344 304.5 319.816406 302.664062 313.191406 L 442.695312 318.4375 L 422.199219 307.234375 C 437.660156 306.910156 450.492188 306.441406 465.945312 306.117188 C 472.457031 306.855469 474.375 306.554688 477.578125 311.253906 C 478.519531 312.699219 478.785156 314.574219 479.25 316.28125 C 479.707031 317.980469 479.988281 319.394531 481.75 320.144531 C 482.023438 320.292969 482.609375 320.335938 482.839844 320.335938 C 498.335938 320.476562 527.773438 320.890625 544.871094 321.394531 C 537.230469 309.785156 529.664062 305.542969 517.589844 300.617188 L 301.914062 309.230469 C 300.507812 301.460938 300.320312 294.519531 301.582031 286.042969 C 301.722656 285.296875 302.285156 285.261719 302.699219 285.710938 C 309.640625 293.3125 320.914062 301.671875 333.417969 304.109375 C 334.824219 304.390625 334.84375 304.292969 334.492188 303.597656 C 333.410156 302.050781 326.960938 291.746094 329.246094 291.808594 L 492.773438 296.207031 C 495.882812 296.285156 484.925781 278.519531 469.894531 277.058594 C 469.824219 277.050781 338.152344 285.324219 327.742188 285.746094 C 327.539062 285.753906 327.027344 285.585938 326.96875 285.347656 C 323.640625 273.089844 322.9375 266.304688 324.890625 253.105469 C 324.921875 253 325.015625 252.949219 325.09375 253.027344 C 335.34375 263.683594 347.269531 270.328125 357.511719 273.074219 " fill-opacity="1" fill-rule="evenodd"/></g><path fill="#ced4da" d="M 0.492188 539.636719 L 122.566406 539.507812 C 128.839844 539.59375 133.449219 544.652344 133.695312 550.023438 L 133.695312 623.863281 C 133.667969 629.878906 128.601562 635.390625 122.546875 635.390625 L 42.636719 635.390625 L 42.648438 603.542969 L 95.71875 603.585938 C 98.0625 603.59375 99.980469 602.0625 100.066406 599.617188 C 100.078125 591.230469 100.085938 582.84375 100.101562 574.460938 C 100.148438 572.3125 98.167969 570.050781 95.746094 570.042969 L 33.300781 570.042969 L 33.410156 672.964844 L 0.417969 672.957031 " fill-opacity="1" fill-rule="evenodd"/><g clip-path="url(#b1d96536e9)"><path fill="#ced4da" d="M 165.289062 539.664062 L 279.976562 539.613281 L 279.988281 570.09375 L 193.222656 570.253906 C 190.0625 570.15625 187.527344 573.183594 187.785156 575.902344 L 187.617188 591.882812 L 269.964844 591.960938 L 269.996094 621.519531 L 187.574219 621.503906 C 187.5625 627.101562 187.5625 632.695312 187.558594 638.285156 C 187.628906 641.523438 190.082031 643.828125 193.367188 643.941406 L 296.84375 643.863281 C 299.449219 643.777344 301.84375 641.285156 302.175781 638.285156 L 302.160156 539.585938 L 337.277344 539.566406 C 342.945312 539.601562 347.925781 545.699219 350.644531 549.960938 C 366.46875 574.707031 377.097656 601.835938 392.910156 626.582031 C 395.613281 631.128906 395.628906 631.042969 398.15625 626.667969 L 440.632812 549.996094 C 443.765625 544.347656 447.894531 539.601562 454.441406 539.585938 L 487.140625 539.550781 L 487.261719 672.734375 L 454.421875 672.769531 L 454.433594 593.855469 L 413.199219 668.609375 C 412.300781 670.121094 410.910156 672.867188 408.183594 672.867188 L 383.59375 672.921875 C 380.972656 672.894531 379.273438 670.394531 378.261719 668.609375 L 337.253906 593.976562 L 337.316406 662.511719 C 337.371094 668.355469 332.257812 672.902344 327.023438 672.910156 L 165.15625 673.027344 C 159.578125 672.957031 154.765625 668.335938 154.800781 662.484375 L 154.816406 549.996094 C 154.753906 544.277344 159.683594 539.671875 165.296875 539.664062 " fill-opacity="1" fill-rule="evenodd"/></g><path fill="#ced4da" d="M 512.488281 551.976562 C 512.441406 545.207031 518.488281 539.542969 525.40625 539.550781 L 637.824219 539.664062 L 637.835938 570.253906 L 551.824219 570.253906 C 547.40625 570.21875 543.789062 574.027344 543.984375 578.03125 L 543.9375 592.085938 L 624.957031 591.945312 L 624.878906 621.519531 L 544.121094 621.460938 L 544.105469 638.179688 C 544.324219 641.515625 547.835938 644.199219 551.875 644.214844 L 680.203125 643.941406 C 681.683594 643.953125 682.570312 643.847656 683.707031 642.796875 C 692.769531 632.140625 701.832031 621.484375 710.898438 610.828125 C 712.585938 608.691406 712.578125 607.070312 710.898438 605.101562 L 682.84375 573.28125 C 683.792969 574.441406 680.105469 570.171875 678.242188 570.148438 L 657.15625 570.183594 L 657.15625 539.566406 C 669.882812 539.566406 678.3125 539.566406 691.035156 539.566406 C 699.183594 539.699219 703.972656 547.769531 708.039062 552.363281 L 731.605469 580.46875 C 734.066406 583.433594 734.03125 583.460938 736.375 580.539062 L 760.433594 552.070312 C 763.519531 548.332031 770.585938 539.53125 777.308594 539.585938 L 809.5625 539.585938 L 809.5625 570.207031 C 802.953125 570.191406 796.34375 570.171875 789.734375 570.15625 C 788.625 570.191406 787.304688 570.640625 786.425781 571.75 L 758.214844 605.171875 C 755.828125 608.101562 755.8125 608.066406 758.039062 610.855469 L 784.710938 642.832031 C 786.171875 644.25 787.660156 643.953125 789.691406 643.917969 L 809.464844 643.847656 L 809.527344 672.832031 L 769.382812 672.851562 C 767.410156 672.851562 763.046875 671.890625 761.832031 670.472656 L 732.226562 634.746094 L 702.890625 670.464844 C 701.613281 672.015625 698.171875 672.972656 695.015625 672.972656 L 525.371094 672.972656 C 518.242188 672.796875 512.445312 668.046875 512.488281 660.769531 Z M 512.488281 551.976562 " fill-opacity="1" fill-rule="evenodd"/><path fill="#ced4da" d="M 0.492188 539.636719 L 122.566406 539.507812 C 128.839844 539.59375 133.449219 544.652344 133.695312 550.023438 L 133.695312 623.863281 C 133.667969 629.878906 128.601562 635.390625 122.546875 635.390625 L 42.636719 635.390625 L 42.648438 603.542969 L 95.71875 603.585938 C 98.0625 603.59375 99.980469 602.0625 100.066406 599.617188 C 100.078125 591.230469 100.085938 582.84375 100.101562 574.460938 C 100.148438 572.3125 98.167969 570.050781 95.746094 570.042969 L 33.300781 570.042969 L 33.410156 672.964844 L 0.417969 672.957031 " fill-opacity="1" fill-rule="evenodd"/><g clip-path="url(#e4d15595fe)"><path fill="#ced4da" d="M 165.289062 539.664062 L 279.976562 539.613281 L 279.988281 570.09375 L 193.222656 570.253906 C 190.0625 570.15625 187.527344 573.183594 187.785156 575.902344 L 187.617188 591.882812 L 269.964844 591.960938 L 269.996094 621.519531 L 187.574219 621.503906 C 187.5625 627.101562 187.5625 632.695312 187.558594 638.285156 C 187.628906 641.523438 190.082031 643.828125 193.367188 643.941406 L 296.84375 643.863281 C 299.449219 643.777344 301.84375 641.285156 302.175781 638.285156 L 302.160156 539.585938 L 337.277344 539.566406 C 342.945312 539.601562 347.925781 545.699219 350.644531 549.960938 C 366.46875 574.707031 377.097656 601.835938 392.910156 626.582031 C 395.613281 631.128906 395.628906 631.042969 398.15625 626.667969 L 440.632812 549.996094 C 443.765625 544.347656 447.894531 539.601562 454.441406 539.585938 L 487.140625 539.550781 L 487.261719 672.734375 L 454.421875 672.769531 L 454.433594 593.855469 L 413.199219 668.609375 C 412.300781 670.121094 410.910156 672.867188 408.183594 672.867188 L 383.59375 672.921875 C 380.972656 672.894531 379.273438 670.394531 378.261719 668.609375 L 337.253906 593.976562 L 337.316406 662.511719 C 337.371094 668.355469 332.257812 672.902344 327.023438 672.910156 L 165.15625 673.027344 C 159.578125 672.957031 154.765625 668.335938 154.800781 662.484375 L 154.816406 549.996094 C 154.753906 544.277344 159.683594 539.671875 165.296875 539.664062 " fill-opacity="1" fill-rule="evenodd"/></g><path fill="#ced4da" d="M 512.488281 551.976562 C 512.441406 545.207031 518.488281 539.542969 525.40625 539.550781 L 637.824219 539.664062 L 637.835938 570.253906 L 551.824219 570.253906 C 547.40625 570.21875 543.789062 574.027344 543.984375 578.03125 L 543.9375 592.085938 L 624.957031 591.945312 L 624.878906 621.519531 L 544.121094 621.460938 L 544.105469 638.179688 C 544.324219 641.515625 547.835938 644.199219 551.875 644.214844 L 680.203125 643.941406 C 681.683594 643.953125 682.570312 643.847656 683.707031 642.796875 C 692.769531 632.140625 701.832031 621.484375 710.898438 610.828125 C 712.585938 608.691406 712.578125 607.070312 710.898438 605.101562 L 682.84375 573.28125 C 683.792969 574.441406 680.105469 570.171875 678.242188 570.148438 L 657.15625 570.183594 L 657.15625 539.566406 C 669.882812 539.566406 678.3125 539.566406 691.035156 539.566406 C 699.183594 539.699219 703.972656 547.769531 708.039062 552.363281 L 731.605469 580.46875 C 734.066406 583.433594 734.03125 583.460938 736.375 580.539062 L 760.433594 552.070312 C 763.519531 548.332031 770.585938 539.53125 777.308594 539.585938 L 809.5625 539.585938 L 809.5625 570.207031 C 802.953125 570.191406 796.34375 570.171875 789.734375 570.15625 C 788.625 570.191406 787.304688 570.640625 786.425781 571.75 L 758.214844 605.171875 C 755.828125 608.101562 755.8125 608.066406 758.039062 610.855469 L 784.710938 642.832031 C 786.171875 644.25 787.660156 643.953125 789.691406 643.917969 L 809.464844 643.847656 L 809.527344 672.832031 L 769.382812 672.851562 C 767.410156 672.851562 763.046875 671.890625 761.832031 670.472656 L 732.226562 634.746094 L 702.890625 670.464844 C 701.613281 672.015625 698.171875 672.972656 695.015625 672.972656 L 525.371094 672.972656 C 518.242188 672.796875 512.445312 668.046875 512.488281 660.769531 Z M 512.488281 551.976562 " fill-opacity="1" fill-rule="evenodd"/></svg>